<?xml version="1.0" standalone="no"?>
<!DOCTYPE svg PUBLIC "-//W3C//DTD SVG 20010904//EN"
 "http://www.w3.org/TR/2001/REC-SVG-20010904/DTD/svg10.dtd">
<svg version="1.0" xmlns="http://www.w3.org/2000/svg"
 width="153.000000pt" height="48.000000pt" viewBox="0 0 153.000000 48.000000"
 preserveAspectRatio="xMidYMid meet">

<g transform="translate(0.000000,48.000000) scale(0.100000,-0.100000)"
fill="#000000" stroke="none">
<path d="M0 240 l0 -240 765 0 765 0 0 240 0 240 -765 0 -765 0 0 -240z m565
64 c18 -86 26 -91 40 -24 20 102 24 110 55 110 l30 0 0 -140 0 -140 -25 0
c-23 0 -24 3 -27 73 l-3 72 -14 -72 c-11 -58 -18 -73 -32 -73 -14 0 -22 17
-36 78 l-18 77 -3 -77 c-3 -70 -5 -78 -22 -78 -19 0 -20 8 -20 140 l0 140 29
0 c28 0 29 -2 46 -86z m205 26 c0 -57 1 -60 25 -60 24 0 25 3 25 60 0 57 1 60
25 60 l25 0 0 -140 0 -140 -25 0 c-24 0 -25 3 -25 55 0 52 -1 55 -25 55 -24 0
-25 -3 -25 -55 0 -52 -1 -55 -25 -55 l-25 0 0 140 0 140 25 0 c24 0 25 -3 25
-60z m258 48 c7 -7 12 -29 12 -50 0 -31 -4 -38 -19 -38 -13 0 -21 8 -23 23 -2
14 -11 23 -26 25 -21 3 -23 0 -20 -29 3 -28 8 -34 46 -47 l43 -14 -3 -66 -3
-67 -53 -3 c-64 -4 -82 8 -82 54 0 29 3 34 24 34 18 0 25 -6 28 -22 2 -15 10
-23 23 -23 15 0 20 7 20 29 0 25 -6 31 -45 45 l-45 16 -3 57 c-2 41 1 60 13
72 19 19 95 22 113 4z"/>
</g>
</svg>
